<svg xmlns="http://www.w3.org/2000/svg" fill="none" viewBox="0 0 1000 999.991"><path fill="#0866ff" d="M1000.94 485.906c0 278.683-218.336 484.995-500 484.995-50.584 0-99.12-6.668-144.74-19.21a39.88 39.88 0 0 0-26.701 1.945L230.25 997.45c-25.954 11.468-55.256-6.997-56.127-35.364l-2.728-88.953c-.34-10.951-5.267-21.207-13.438-28.494C60.668 757.63.94 631.682.94 485.906.94 207.236 219.276.91 500.94.91s500 206.325 500 484.996" style="stroke-width:12.7992" transform="translate(-.94 -.91)"/><path fill="#fff" d="m636.7 625.519 174.081-269.034c17.506-27.04-14.916-58.515-41.427-40.227l-181.721 125.34a18.38 18.38 0 0 1-20.435.304L405.91 337.552c-13.653-8.828-31.879-4.926-40.706 8.727L191.11 615.326c-17.505 27.04 14.917 58.515 41.426 40.226L414.297 530.2a18.4 18.4 0 0 1 20.448-.304l161.26 104.35c13.655 8.828 31.88 4.926 40.709-8.727z" style="stroke-width:12.7992" transform="translate(-.94 -.91)"/></svg>